# xmcd CD database file
#
# Track frame offsets:
#	183
#	17570
#	35958
#	51685
#	65273
#	74055
#	86653
#	103883
#	118858
#	135458
#
# Disc length: 2044 seconds
#
# Revision: 0
# Processed by: cddbd v1.4PL0 Copyright (c) Steve Scherf et al.
# Submitted via: Feurio! 1.65 - http://www.feurio.com
#
DISCID=9b07fa0a
DTITLE=Dr. Feelgood - Sneakin' Suspicion
DYEAR=1977
DGENRE=Blues
TTITLE0=Sneakin' Suspicion
TTITLE1=Paradise
TTITLE2=Nothin' Shakin' (But The Leaves On The Trees)
TTITLE3=Time And The Devil
TTITLE4=Lights Out
TTITLE5=Lucky Seven
TTITLE6=All My Love
TTITLE7=You'll Be Mine
TTITLE8=Walking On The Edge
TTITLE9=Hey Mama, Keep Your Big Mouth Shut
EXTD=ARD Grand Records GRAND CD 13
EXTT0=
EXTT1=
EXTT2=
EXTT3=
EXTT4=
EXTT5=
EXTT6=
EXTT7=
EXTT8=
EXTT9=
PLAYORDER=
